<?xml version="1.0" encoding="UTF-8" standalone="no"?>
<svg
   width="16.933338mm"
   height="19.049999mm"
   viewBox="0 0 16.933338 19.049999"
   version="1.1"
   id="svg8"
   inkscape:version="1.1.1 (3bf5ae0d25, 2021-09-20)"
   sodipodi:docname="tile.svg"
   xmlns:inkscape="http://www.inkscape.org/namespaces/inkscape"
   xmlns:sodipodi="http://sodipodi.sourceforge.net/DTD/sodipodi-0.dtd"
   xmlns="http://www.w3.org/2000/svg"
   xmlns:svg="http://www.w3.org/2000/svg"
   xmlns:rdf="http://www.w3.org/1999/02/22-rdf-syntax-ns#"
   xmlns:cc="http://creativecommons.org/ns#"
   xmlns:dc="http://purl.org/dc/elements/1.1/">
  <defs
     id="defs2">
    <clipPath
       clipPathUnits="userSpaceOnUse"
       id="clipPath12481">
      <rect
         style="fill:#40845c;fill-opacity:1;stroke-width:1.4548;stroke-linecap:round;stroke-linejoin:bevel"
         id="rect12483"
         width="1024"
         height="780"
         x="-416.99277"
         y="-496.2449" />
    </clipPath>
  </defs>
  <sodipodi:namedview
     id="base"
     pagecolor="#ffffff"
     bordercolor="#666666"
     borderopacity="1.0"
     inkscape:pageopacity="0.0"
     inkscape:pageshadow="2"
     inkscape:zoom="1.28"
     inkscape:cx="75.78125"
     inkscape:cy="188.67188"
     inkscape:document-units="mm"
     inkscape:current-layer="layer1"
     inkscape:document-rotation="0"
     showgrid="false"
     inkscape:window-width="1432"
     inkscape:window-height="1088"
     inkscape:window-x="1733"
     inkscape:window-y="623"
     inkscape:window-maximized="0"
     inkscape:pagecheckerboard="0"
     fit-margin-top="0"
     fit-margin-left="0"
     fit-margin-right="0"
     fit-margin-bottom="0" />
  <metadata
     id="metadata5">
    <rdf:RDF>
      <cc:Work
         rdf:about="">
        <dc:format>image/svg+xml</dc:format>
        <dc:type
           rdf:resource="http://purl.org/dc/dcmitype/StillImage" />
      </cc:Work>
    </rdf:RDF>
  </metadata>
  <g
     inkscape:label="Calque 1"
     inkscape:groupmode="layer"
     id="layer1"
     transform="translate(112.76284,522.26569)">
    <g
       id="g1930"
       inkscape:export-filename="/home/anthony/git/sdl2-tiles-scrolling/tile.png"
       inkscape:export-xdpi="96"
       inkscape:export-ydpi="96">
      <rect
         style="fill:#40845c;fill-opacity:1;stroke-width:0.0292366;stroke-linecap:round;stroke-linejoin:bevel"
         id="rect855"
         width="16.933332"
         height="19.049999"
         x="-112.76283"
         y="-522.26569" />
      <g
         class=""
         id="use11021"
         transform="matrix(0.01781879,0.01028768,-0.01028768,0.01781879,-110.05482,-525.16653)"
         style="opacity:0.998;fill:#026a2d;fill-opacity:1"
         inkscape:tile-x0="-357.84499"
         inkscape:tile-y0="-438.85579">
        <path
           d="m 477.443,295.143 a 104.45,104.45 0 0 1 -202.26,36.67 c -0.08,68.73 4.33,114.46 69.55,149 h -177.57 c 65.22,-34.53 69.63,-80.25 69.55,-149 a 104.41,104.41 0 1 1 -66.34,-136.28 104.45,104.45 0 1 1 171.14,0 104.5,104.5 0 0 1 135.93,99.61 z"
           fill="#ffffff"
           fill-opacity="1"
           id="path11381"
           style="fill:#026a2d;fill-opacity:1" />
      </g>
      <g
         id="g1843"
         transform="matrix(0.01781879,0.01028768,-0.01028768,0.01781879,-101.58815,-515.3297)"
         style="opacity:0.998;fill:#026a2d;fill-opacity:1"
         inkscape:tile-x0="-357.84499"
         inkscape:tile-y0="-438.85579">
        <path
           d="m 477.443,295.143 a 104.45,104.45 0 0 1 -202.26,36.67 c -0.08,68.73 4.33,114.46 69.55,149 h -177.57 c 65.22,-34.53 69.63,-80.25 69.55,-149 a 104.41,104.41 0 1 1 -66.34,-136.28 104.45,104.45 0 1 1 171.14,0 104.5,104.5 0 0 1 135.93,99.61 z"
           fill="#ffffff"
           fill-opacity="1"
           id="path1841"
           style="fill:#026a2d;fill-opacity:1" />
      </g>
    </g>
  </g>
</svg>
